<svg viewBox="0 0 178 61" xmlns="http://www.w3.org/2000/svg" fill-rule="evenodd" clip-rule="evenodd" stroke-linejoin="round" stroke-miterlimit="2">
  <path d="M9.492 5.167H0V.757h24.024v4.41h-9.45v25.578H9.492V5.167zM39.48 14.617c1.134 0 2.1-.126 2.856-.378.756-.21 1.344-.546 1.806-1.008.42-.42.714-.924.924-1.554.168-.63.252-1.302.252-2.058 0-.714-.084-1.344-.294-1.932-.21-.546-.588-1.05-1.05-1.47-.504-.378-1.176-.714-1.974-.924-.798-.21-1.806-.336-3.024-.336h-5.124v9.66h5.628zM39.102.757c2.268 0 4.158.252 5.628.798 1.47.546 2.604 1.218 3.486 2.058.84.882 1.428 1.806 1.764 2.856.336 1.05.504 2.058.504 3.066 0 1.974-.378 3.612-1.134 4.914-.798 1.302-2.016 2.394-3.738 3.192l6.216 13.104h-5.544l-5.376-11.928c-.252.042-.504.042-.798.042-.294.042-.588.042-.882.042h-5.376v11.844h-4.998V.757h10.248zM56.7.757h5.082v29.988H56.7zM68.964.757h10.374c2.184 0 3.99.21 5.376.588 1.386.42 2.52.966 3.36 1.68.798.714 1.386 1.554 1.68 2.52.294.966.462 2.016.462 3.108 0 1.26-.294 2.436-.84 3.486-.546 1.092-1.596 1.974-3.066 2.688.966.42 1.722.882 2.352 1.428a7.67 7.67 0 0 1 1.47 1.68c.378.63.63 1.26.756 1.89.126.672.21 1.344.21 2.016 0 1.218-.168 2.394-.546 3.486s-1.008 2.016-1.89 2.814c-.882.798-2.016 1.428-3.402 1.89-1.386.462-3.108.714-5.166.714h-11.13V.757zm10.962 12.306c1.974 0 3.36-.378 4.158-1.092.798-.714 1.176-1.764 1.176-3.15 0-1.428-.462-2.478-1.344-3.108-.924-.63-2.52-.924-4.746-.924h-5.292v8.274h6.048zm0 13.608c1.218 0 2.226-.126 3.024-.336.798-.21 1.428-.546 1.89-.966.42-.42.756-.924.966-1.512.21-.588.294-1.26.294-1.974 0-1.512-.42-2.688-1.26-3.486-.882-.798-2.352-1.176-4.452-1.176h-6.51v9.45h6.048zM96.684.757h19.95v4.368h-14.868v7.98h14.028v4.41h-14.028v8.862h15.666l-.588 4.368h-20.16V.757zM147.798 20.623c-.168 1.554-.546 3.024-1.134 4.326-.588 1.302-1.386 2.478-2.436 3.444-1.05.966-2.31 1.722-3.78 2.268-1.47.588-3.192.84-5.166.84-2.142 0-4.074-.378-5.754-1.092-1.722-.714-3.15-1.764-4.284-3.15-1.176-1.344-2.058-2.982-2.646-4.956-.63-1.932-.924-4.116-.924-6.51 0-2.478.336-4.662 1.008-6.636.63-1.974 1.554-3.612 2.772-4.998 1.218-1.344 2.646-2.394 4.326-3.108 1.68-.714 3.528-1.05 5.544-1.05 1.89 0 3.486.252 4.872.714 1.386.462 2.562 1.134 3.528 2.016.966.882 1.722 1.974 2.31 3.192.546 1.218.966 2.604 1.26 4.116l-4.998.714a14.461 14.461 0 0 0-.84-2.688c-.336-.798-.756-1.47-1.302-2.016-.588-.504-1.218-.966-2.016-1.26a9.235 9.235 0 0 0-2.814-.42c-1.344 0-2.52.252-3.57.798-1.05.546-1.89 1.302-2.604 2.268-.714 1.008-1.26 2.226-1.638 3.612-.378 1.386-.546 2.982-.546 4.704 0 1.764.21 3.36.588 4.746.378 1.386.924 2.604 1.638 3.57.714 1.008 1.596 1.764 2.646 2.268 1.008.546 2.184.798 3.486.798 1.176 0 2.184-.168 3.024-.462a5.748 5.748 0 0 0 2.058-1.302c.546-.546 1.008-1.26 1.344-2.058.294-.798.546-1.68.672-2.688h5.376zM161.406.757h5.04l11.424 29.988h-5.418l-2.814-7.644h-11.634l-2.772 7.644h-5.25L161.406.757zm6.846 18.102L163.8 6.511l-4.41 12.348h8.862z" fill-rule="nonzero"/>
  <g>
    <path d="M62.332 53.393h4.716v4.968a4.91 4.91 0 0 1-1.044.774 6.43 6.43 0 0 1-1.206.522 7.821 7.821 0 0 1-1.278.324c-.432.054-.846.09-1.26.09-.918 0-1.728-.144-2.448-.45a4.678 4.678 0 0 1-1.854-1.296c-.522-.558-.9-1.26-1.17-2.106-.27-.828-.414-1.782-.414-2.862 0-1.098.144-2.07.45-2.934.288-.828.684-1.548 1.206-2.124a5.181 5.181 0 0 1 1.8-1.296 5.826 5.826 0 0 1 2.25-.432c1.35 0 2.394.306 3.15.918.738.63 1.26 1.494 1.548 2.592l-1.026.234a6.474 6.474 0 0 0-.45-1.134 3.436 3.436 0 0 0-.72-.882 3.413 3.413 0 0 0-1.044-.576 5.01 5.01 0 0 0-1.458-.198c-.738 0-1.404.144-1.962.432a3.894 3.894 0 0 0-1.44 1.206 5.77 5.77 0 0 0-.864 1.836 8.528 8.528 0 0 0-.306 2.322c0 .846.09 1.62.288 2.322.198.702.486 1.314.882 1.836s.9.918 1.494 1.188c.594.288 1.278.432 2.088.432a7 7 0 0 0 2.016-.288 5.16 5.16 0 0 0 1.728-.846v-3.582h-3.672v-.99zM74.302 46.895h4.032c.918 0 1.692.108 2.286.306.594.198 1.062.468 1.404.792.342.324.576.702.702 1.116.126.414.18.846.18 1.278 0 .81-.18 1.512-.54 2.088-.378.576-.972 1.008-1.8 1.314l2.772 5.958H82.06l-2.574-5.706c-.198.018-.414.036-.63.054-.216.018-.45.036-.684.036h-2.79v5.616h-1.08V46.895zm4.176 6.264c.648 0 1.188-.072 1.62-.198.414-.126.756-.306 1.008-.54.252-.234.432-.522.54-.864.09-.342.144-.72.144-1.152 0-.414-.054-.792-.162-1.116a1.877 1.877 0 0 0-.558-.792c-.27-.216-.63-.378-1.08-.486-.45-.108-1.026-.162-1.71-.162h-2.898v5.31h3.096zM90.142 46.895h1.098v12.852h-1.098zM98.854 46.895h1.098v11.826h6.984l-.234 1.026h-7.848V46.895zM113.416 46.895h1.098v11.826h6.984l-.234 1.026h-7.848V46.895z" fill-rule="nonzero"/>
  </g>
</svg>
